<?xml version="1.0" standalone="no"?>
<!DOCTYPE svg PUBLIC "-//W3C//DTD SVG 20010904//EN"
 "http://www.w3.org/TR/2001/REC-SVG-20010904/DTD/svg10.dtd">
<svg version="1.0" xmlns="http://www.w3.org/2000/svg"
 width="50.000000pt" height="50.000000pt" viewBox="0 0 50.000000 50.000000"
 preserveAspectRatio="xMidYMid meet">
<metadata>
Created by potrace 1.16, written by Peter Selinger 2001-2019
</metadata>
<g transform="translate(0.000000,50.000000) scale(0.100000,-0.100000)"
fill="#000000" stroke="none">
<path d="M162 470 c-104 -64 -97 -212 20 -386 32 -47 56 -74 68 -74 22 0 103
117 136 199 46 111 27 215 -48 261 -45 27 -131 27 -176 0z m179 -49 c35 -35
39 -44 39 -89 0 -28 -9 -75 -21 -103 -20 -52 -98 -179 -109 -179 -11 0 -93
133 -111 181 -11 27 -19 72 -19 100 0 46 4 55 39 90 35 35 44 39 91 39 47 0
56 -4 91 -39z"/>
<path d="M197 372 c-23 -25 -22 -85 1 -105 25 -23 85 -22 105 1 23 25 22 85
-1 105 -25 23 -85 22 -105 -1z"/>
</g>
</svg>
