<?xml version="1.0" standalone="no"?>
<!DOCTYPE svg PUBLIC "-//W3C//DTD SVG 20010904//EN"
 "http://www.w3.org/TR/2001/REC-SVG-20010904/DTD/svg10.dtd">
<svg version="1.0" xmlns="http://www.w3.org/2000/svg"
 width="50.000000pt" height="50.000000pt" viewBox="0 0 50.000000 50.000000"
 preserveAspectRatio="xMidYMid meet">
<metadata>
Created by potrace 1.16, written by Peter Selinger 2001-2019
</metadata>
<g transform="translate(0.000000,50.000000) scale(0.100000,-0.100000)"
fill="#000000" stroke="none">
<path d="M196 483 c-3 -4 -16 -8 -28 -10 -12 -2 -29 -10 -37 -17 -9 -7 -29
-16 -44 -20 -17 -4 -31 -16 -37 -32 -6 -14 -17 -32 -25 -40 -23 -23 -19 -70 8
-89 l22 -16 -22 -16 c-16 -11 -23 -25 -23 -49 0 -28 7 -37 48 -65 44 -30 50
-31 95 -22 l47 10 0 -29 c0 -24 -5 -30 -31 -35 -31 -6 -46 -24 -34 -42 4 -7
12 -7 23 -1 9 6 29 14 45 20 23 8 27 15 27 49 0 22 5 41 13 43 26 10 37 -4 37
-47 0 -49 1 -50 53 -59 29 -5 37 -4 37 8 0 8 -13 17 -30 21 -27 6 -30 10 -30
45 0 34 3 38 29 42 16 2 37 -2 47 -9 26 -19 42 -16 70 12 20 20 24 32 19 54
-3 17 -2 32 4 36 6 3 11 21 11 38 0 23 -10 41 -35 66 -20 20 -35 44 -35 57 0
27 -39 57 -68 52 -10 -2 -35 9 -55 25 -34 25 -85 36 -101 20z m64 -38 c7 -8
19 -15 27 -15 7 0 16 -7 20 -16 4 -11 14 -14 34 -10 31 6 55 -15 45 -40 -4
-11 7 -29 36 -55 37 -34 41 -41 30 -56 -22 -32 -25 -45 -14 -64 9 -14 8 -21
-4 -34 -15 -15 -18 -15 -35 1 -13 11 -26 14 -46 9 -27 -6 -149 -18 -185 -17
-10 1 -20 -3 -23 -9 -9 -14 -45 -11 -51 5 -3 8 -16 17 -30 20 -26 7 -33 39
-12 53 14 9 38 48 38 62 0 5 -11 12 -25 15 -27 7 -34 39 -12 53 7 4 18 20 24
35 11 23 17 27 41 22 24 -5 30 -2 35 15 3 13 13 21 25 21 12 0 24 5 27 10 9
15 41 12 55 -5z"/>
</g>
</svg>
