<?xml version="1.0" standalone="no"?>
<!DOCTYPE svg PUBLIC "-//W3C//DTD SVG 20010904//EN"
 "http://www.w3.org/TR/2001/REC-SVG-20010904/DTD/svg10.dtd">
<svg version="1.0" xmlns="http://www.w3.org/2000/svg"
 width="50.000000pt" height="50.000000pt" viewBox="0 0 50.000000 50.000000"
 preserveAspectRatio="xMidYMid meet">
<metadata>
Created by potrace 1.16, written by Peter Selinger 2001-2019
</metadata>
<g transform="translate(0.000000,50.000000) scale(0.100000,-0.100000)"
fill="#000000" stroke="none">
<path d="M175 478 c-16 -6 -37 -16 -45 -23 -8 -7 -28 -15 -43 -19 -19 -5 -32
-16 -38 -36 -6 -15 -17 -31 -25 -34 -19 -7 -18 -65 3 -88 15 -17 15 -19 0 -36
-22 -25 -21 -75 1 -95 10 -10 22 -17 26 -17 4 0 15 -7 23 -16 12 -12 27 -14
57 -10 23 3 81 10 129 15 49 5 91 12 94 15 3 3 15 -1 27 -9 29 -21 43 -19 72
10 20 20 24 32 19 54 -3 17 -2 32 4 36 6 3 11 21 11 38 0 23 -10 41 -35 66
-20 19 -35 44 -35 57 0 26 -34 54 -66 54 -12 0 -38 11 -58 25 -39 27 -72 30
-121 13z"/>
<path d="M200 85 c0 -19 -7 -26 -32 -33 -18 -4 -34 -16 -36 -25 -3 -15 9 -17
117 -17 98 0 121 3 121 14 0 8 -13 17 -30 21 -25 5 -30 11 -30 36 0 29 -1 29
-55 29 -52 0 -55 -1 -55 -25z"/>
</g>
</svg>
