<?xml version="1.0" standalone="no"?>
<!DOCTYPE svg PUBLIC "-//W3C//DTD SVG 20010904//EN"
 "http://www.w3.org/TR/2001/REC-SVG-20010904/DTD/svg10.dtd">
<svg version="1.0" xmlns="http://www.w3.org/2000/svg"
 width="50.000000pt" height="50.000000pt" viewBox="0 0 50.000000 50.000000"
 preserveAspectRatio="xMidYMid meet">
<metadata>
Created by potrace 1.16, written by Peter Selinger 2001-2019
</metadata>
<g transform="translate(0.000000,50.000000) scale(0.100000,-0.100000)"
fill="#000000" stroke="none">
<path d="M196 439 c-23 -18 -26 -27 -26 -88 0 -47 6 -80 20 -110 27 -54 20
-74 -33 -96 -53 -23 -87 -53 -87 -77 0 -17 13 -18 190 -18 177 0 190 1 190 18
0 25 -36 57 -87 77 -52 21 -59 41 -34 97 13 26 22 69 23 106 3 60 1 65 -27 88
-38 30 -92 32 -129 3z"/>
</g>
</svg>
