<?xml version="1.0" standalone="no"?>
<!DOCTYPE svg PUBLIC "-//W3C//DTD SVG 20010904//EN"
 "http://www.w3.org/TR/2001/REC-SVG-20010904/DTD/svg10.dtd">
<svg version="1.0" xmlns="http://www.w3.org/2000/svg"
 width="50.000000pt" height="50.000000pt" viewBox="0 0 50.000000 50.000000"
 preserveAspectRatio="xMidYMid meet">
<metadata>
Created by potrace 1.16, written by Peter Selinger 2001-2019
</metadata>
<g transform="translate(0.000000,50.000000) scale(0.100000,-0.100000)"
fill="#000000" stroke="none">
<path d="M203 460 c-12 -5 -26 -18 -32 -29 -13 -23 -15 -171 -3 -171 4 0 14
-16 21 -36 15 -43 12 -48 -61 -83 -42 -21 -55 -33 -64 -61 l-12 -35 104 -3
c57 -1 151 -1 208 0 l104 3 -12 35 c-9 28 -22 40 -64 61 -73 35 -76 40 -61 83
7 20 16 36 20 36 11 0 17 122 7 150 -16 48 -96 74 -155 50z m94 -35 c36 -18
45 -43 32 -87 -4 -17 -6 -34 -4 -39 3 -4 -4 -24 -15 -44 -36 -64 -23 -103 42
-130 44 -17 78 -42 78 -57 0 -4 -76 -8 -170 -8 -93 0 -170 4 -170 8 0 15 34
40 78 57 64 26 78 65 44 127 -10 19 -19 59 -20 95 -3 54 0 63 20 77 28 20 47
20 85 1z"/>
</g>
</svg>
